<?xml version="1.0" encoding="UTF-8"?>
<!DOCTYPE svg PUBLIC "-//W3C//DTD SVG 1.1//EN" "http://www.w3.org/Graphics/SVG/1.1/DTD/svg11.dtd">
<!-- Creator: CorelDRAW -->
<svg xmlns="http://www.w3.org/2000/svg" xml:space="preserve" width="8.26772in" height="11.6929in" style="shape-rendering:geometricPrecision; text-rendering:geometricPrecision; image-rendering:optimizeQuality; fill-rule:evenodd; clip-rule:evenodd" viewBox="0 0 8.26772 11.6929" xmlns:xlink="http://www.w3.org/1999/xlink">
 <defs>
  <style type="text/css">
   <![CDATA[
    .fil1 {fill:#4C4C4C}
    .fil0 {fill:#FF6600}
    .fil2 {fill:#4C4C4C;fill-rule:nonzero}
   ]]>
  </style>
 </defs>
 <g id="Layer_x0020_1">
  <metadata id="CorelCorpID_0Corel-Layer"/>
  <g id="_150062856">
   <path id="_149931032" class="fil0" d="M2.70749 5.33391c-0.28302,0 -0.512535,0.229516 -0.512535,0.512535 0,0.0565709 0.00916929,0.111 0.0261024,0.161894l0.153283 0 0 -0.431232 0.333154 0.333157 0.33315 -0.333157 0 0.431232 0.153291 0c0.0169331,-0.0508937 0.0261024,-0.105323 0.0261024,-0.161894 0,-0.28302 -0.229516,-0.512535 -0.512547,-0.512535z"/>
   <path id="_149931160" class="fil1" d="M2.63089 5.98686l-0.145398 -0.145398 0 0.271343 -0.0555787 0 -0.0555787 0 -0.104807 0c0.0899724,0.147614 0.252472,0.246193 0.437957,0.246193 0.185488,0 0.347996,-0.0985787 0.437969,-0.246193l-0.104815 0 -0.0994252 0 -0.0117323 0 0 -0.271343 -0.145398 0.145398 -0.0765945 0.0765945 -0.0765984 -0.0765945z"/>
   <path id="_74749088" class="fil2" d="M3.43336 5.68653l0.083685 0 0.103799 0.31328 0.105366 -0.31328 0.0824331 0 0.0756654 0.449177 -0.082437 0 -0.048252 -0.283681 -0.0955669 0.283681 -0.0753504 0 -0.094315 -0.283681 -0.0491929 0.283681 -0.083374 0 0.0775394 -0.449177zm0.7315 -0.0112559c0.0635748,0 0.118181,0.0230354 0.163831,0.0689921 0.045752,0.0460669 0.0685748,0.102134 0.0685748,0.168209 0,0.0655512 -0.0225118,0.121098 -0.0676378,0.166433 -0.045126,0.0454409 -0.0998386,0.0680551 -0.164142,0.0680551 -0.0673228,0 -0.123287,-0.0232402 -0.167894,-0.0699291 -0.0446063,-0.0465866 -0.0669094,-0.101925 -0.0669094,-0.16602 0,-0.042937 0.0104252,-0.082437 0.0311614,-0.118496 0.0207402,-0.0360591 0.0492953,-0.0646142 0.0856693,-0.0856654 0.0362677,-0.0210512 0.0754528,-0.0315787 0.117346,-0.0315787zm-0.000834646 0.083689c-0.0415827,0 -0.0764921,0.0143819 -0.104736,0.0433543 -0.0283465,0.0288661 -0.0425197,0.0656575 -0.0425197,0.110157 0,0.0497126 0.0178189,0.089 0.0534606,0.11787 0.0277244,0.0226142 0.0594055,0.0338701 0.0952559,0.0338701 0.0405394,0 0.0750354,-0.0145906 0.103488,-0.043878 0.0285551,-0.0293858 0.0428307,-0.0654449 0.0428307,-0.108386 0,-0.0428307 -0.0143819,-0.0789961 -0.0431457,-0.108594 -0.0286575,-0.0295945 -0.0635709,-0.0443937 -0.104634,-0.0443937zm0.31411 -0.0724331l0.081811 0 0.192697 0.295559 0 -0.295559 0.0854606 0 0 0.449177 -0.082126 0 -0.192382 -0.294622 0 0.294622 -0.0854606 0 0 -0.449177zm0.462516 0l0.245224 0 0 0.083689 -0.160287 0 0 0.081185 0.160287 0 0 0.0822244 -0.160287 0 0 0.118079 0.160287 0 0 0.084 -0.245224 0 0 -0.449177zm0.330681 0l0.0906693 0c0.0497126,0 0.0850433,0.00448425 0.106094,0.0133425 0.0210512,0.00885827 0.0380394,0.0235512 0.0508583,0.0440827 0.0128189,0.0205315 0.0191732,0.0449173 0.0191732,0.0729528 0,0.0295984 -0.00698031,0.0541929 -0.0211535,0.0740984 -0.0141732,0.0197992 -0.0355394,0.0348071 -0.0639921,0.0450197l0.106303 0.199681 -0.0934843 0 -0.101091 -0.190197 -0.00791732 0 0 0.190197 -0.0854606 0 0 -0.449177zm0.0854606 0.175606l0.0268858 0c0.0273071,0 0.046063,-0.00354331 0.0563819,-0.0107323 0.0102126,-0.00708661 0.0153189,-0.0188661 0.0153189,-0.0353307 0,-0.00979528 -0.0025,-0.0183425 -0.0076063,-0.0255354 -0.0051063,-0.00718898 -0.0118819,-0.0124016 -0.0204252,-0.0155276 -0.00854724,-0.00322835 -0.0241811,-0.00479134 -0.0470039,-0.00479134l-0.0235512 0 0 0.0919173zm0.483567 -0.186862c0.0635748,0 0.118181,0.0230354 0.163831,0.0689921 0.045752,0.0460669 0.0685748,0.102134 0.0685748,0.168209 0,0.0655512 -0.0225118,0.121098 -0.0676378,0.166433 -0.045126,0.0454409 -0.0998386,0.0680551 -0.164142,0.0680551 -0.0673228,0 -0.123287,-0.0232402 -0.167894,-0.0699291 -0.0446063,-0.0465866 -0.0669094,-0.101925 -0.0669094,-0.16602 0,-0.042937 0.0104252,-0.082437 0.0311614,-0.118496 0.0207402,-0.0360591 0.0492953,-0.0646142 0.0856693,-0.0856654 0.0362677,-0.0210512 0.0754528,-0.0315787 0.117346,-0.0315787zm-0.000834646 0.083689c-0.0415827,0 -0.0764921,0.0143819 -0.104736,0.0433543 -0.0283465,0.0288661 -0.0425197,0.0656575 -0.0425197,0.110157 0,0.0497126 0.0178189,0.089 0.0534606,0.11787 0.0277244,0.0226142 0.0594055,0.0338701 0.0952559,0.0338701 0.0405394,0 0.0750354,-0.0145906 0.103488,-0.043878 0.0285551,-0.0293858 0.0428307,-0.0654449 0.0428307,-0.108386 0,-0.0428307 -0.0143819,-0.0789961 -0.0431457,-0.108594 -0.0286575,-0.0295945 -0.0635709,-0.0443937 -0.104634,-0.0443937z"/>
  </g>
 </g>
</svg>